<svg width="14" height="19" viewBox="0 0 14 19" fill="none" xmlns="http://www.w3.org/2000/svg">
<path d="M3.68283 3.69533L0.947815 0.947754M9.45228 9.46086L6.6543 6.66284M5.06103 7.38769V13.2321M7.16412 15.3367C7.16412 16.4999 6.22215 17.4419 5.05909 17.4419C3.89587 17.4419 2.95391 16.4999 2.95391 15.3367C2.95391 14.1737 3.89587 13.2317 5.05909 13.2317C6.22215 13.2317 7.16412 14.1737 7.16412 15.3367ZM13.0673 10.9197C13.0673 12.0829 12.1253 13.0249 10.9622 13.0249C9.79902 13.0249 8.85706 12.0829 8.85706 10.9197C8.85706 9.75666 9.79902 8.8147 10.9622 8.8147C12.1253 8.8147 13.0673 9.75666 13.0673 10.9197ZM7.16412 5.28383C7.16412 6.44696 6.22215 7.38895 5.05909 7.38895C3.89587 7.38895 2.95391 6.44696 2.95391 5.28383C2.95391 4.12069 3.89587 3.1787 5.05909 3.1787C6.22215 3.1787 7.16412 4.12069 7.16412 5.28383Z" stroke="#FF9A60" stroke-width="1.42162" stroke-linecap="round" stroke-linejoin="round"/>
</svg>
